<svg xmlns="http://www.w3.org/2000/svg" xmlns:xlink="http://www.w3.org/1999/xlink" width="500" zoomAndPan="magnify" viewBox="0 0 375 374.999991" height="500" preserveAspectRatio="xMidYMid meet" version="1.0"><defs><clipPath id="c51c6e5164"><path d="M 26 30 L 344 30 L 344 345.289062 L 26 345.289062 Z M 26 30 " clip-rule="nonzero"/></clipPath></defs><g clip-path="url(#c51c6e5164)"><path fill="#d12929" d="M 183.980469 345.382812 C 154.753906 345.308594 126.46875 337.183594 100.640625 318.179688 C 90.082031 310.414062 79.464844 302.507812 70.070312 293.425781 C 56.070312 279.886719 46.625 263.085938 39.398438 245.015625 C 33.160156 229.410156 29.585938 213.179688 27.726562 196.566406 C 25.136719 173.429688 27.398438 150.769531 36.589844 129.246094 C 55.890625 84.058594 90.175781 53.160156 137.175781 36.523438 C 152.449219 31.117188 168.296875 29.515625 184.402344 30.398438 C 240.992188 33.5 290.285156 69.296875 320.941406 115.527344 C 332.902344 133.566406 341.027344 153.332031 343.246094 174.929688 C 349.894531 239.722656 306.714844 315.742188 242.917969 335.746094 C 223.152344 341.945312 203.359375 345.433594 183.980469 345.382812 Z M 183.980469 345.382812 " fill-opacity="1" fill-rule="nonzero"/></g><path fill="#fafafa" d="M 186.074219 233.648438 C 154.855469 232.6875 128.835938 220.941406 108.28125 197.414062 C 98.179688 185.855469 90.480469 172.929688 85.71875 158.304688 C 85.28125 156.960938 84.941406 155.585938 84.542969 154.226562 C 83.402344 150.335938 84.433594 147.128906 87.949219 145.113281 C 90.957031 143.386719 94.636719 144.550781 97.085938 148.277344 C 100.117188 152.886719 102.558594 157.878906 105.507812 162.542969 C 120.128906 185.664062 139.574219 202.804688 166.671875 209.371094 C 195.300781 216.308594 220.847656 209.21875 242.988281 190.058594 C 253.71875 180.777344 262.113281 169.605469 267.808594 156.492188 C 270.3125 150.722656 276.542969 148.03125 281.355469 150.359375 C 287.058594 153.113281 289.222656 159.226562 286.09375 165.148438 C 271.328125 193.078125 250.855469 215.074219 220.808594 226.8125 C 209.632812 231.179688 197.9375 233.234375 186.074219 233.648438 Z M 186.074219 233.648438 " fill-opacity="1" fill-rule="nonzero"/><path fill="#fafafa" d="M 223.253906 132.746094 C 223.109375 139.570312 216.859375 145.320312 209.796875 145.121094 C 203.335938 144.941406 197.351562 138.785156 197.421875 132.390625 C 197.503906 125.078125 203.375 119.660156 211.050781 119.824219 C 218.1875 119.972656 223.402344 125.496094 223.253906 132.746094 Z M 223.253906 132.746094 " fill-opacity="1" fill-rule="nonzero"/><path fill="#fafafa" d="M 156.210938 126.828125 C 156.203125 134.160156 151.226562 139.238281 144.101562 139.183594 C 137.238281 139.128906 131.679688 133.332031 131.71875 126.269531 C 131.757812 119.394531 137.296875 113.84375 144.09375 113.871094 C 151.183594 113.898438 156.222656 119.28125 156.210938 126.828125 Z M 156.210938 126.828125 " fill-opacity="1" fill-rule="nonzero"/></svg>