<svg xmlns="http://www.w3.org/2000/svg" xmlns:xlink="http://www.w3.org/1999/xlink" width="40" zoomAndPan="magnify" viewBox="0 0 30 30.000001" height="40" preserveAspectRatio="xMidYMid meet" version="1.2"><defs><clipPath id="0421664f1c"><path d="M 0.484375 0 L 29.515625 0 L 29.515625 29.03125 L 0.484375 29.03125 Z M 0.484375 0 "/></clipPath><clipPath id="fd86e84cfd"><path d="M 5 2.472656 L 25 2.472656 L 25 26 L 5 26 Z M 5 2.472656 "/></clipPath></defs><g id="f806f0b93a"><g clip-rule="nonzero" clip-path="url(#0421664f1c)"><path style=" stroke:none;fill-rule:nonzero;fill:#ffffff;fill-opacity:1;" d="M 0.484375 0 L 29.515625 0 L 29.515625 29.03125 L 0.484375 29.03125 Z M 0.484375 0 "/><path style=" stroke:none;fill-rule:nonzero;fill:#ffffff;fill-opacity:1;" d="M 0.484375 0 L 29.515625 0 L 29.515625 29.03125 L 0.484375 29.03125 Z M 0.484375 0 "/></g><g clip-rule="nonzero" clip-path="url(#fd86e84cfd)"><path style=" stroke:none;fill-rule:nonzero;fill:#d42e75;fill-opacity:1;" d="M 8.550781 18.683594 C 7.277344 16.921875 6.101562 15.042969 5.53125 12.949219 C 4.957031 10.851562 5.046875 8.496094 6.183594 6.644531 C 6.921875 5.441406 8.300781 4.449219 9.675781 4.777344 C 10.617188 5.003906 11.316406 5.785156 11.863281 6.582031 C 13.5 8.960938 14.363281 11.859375 14.296875 14.742188 C 14.476562 11.566406 15.503906 8.441406 17.242188 5.773438 C 18.324219 4.109375 20.097656 2.476562 22.039062 2.902344 C 23.496094 3.226562 24.492188 4.683594 24.710938 6.160156 C 24.929688 7.636719 24.519531 9.132812 24.039062 10.542969 C 22.460938 15.1875 20.074219 19.511719 17.292969 23.53125 C 15.542969 26.058594 15.296875 26.421875 13.082031 24.117188 C 11.445312 22.414062 9.929688 20.597656 8.550781 18.683594 "/></g></g></svg>