<svg xmlns="http://www.w3.org/2000/svg" xmlns:xlink="http://www.w3.org/1999/xlink" width="1080" zoomAndPan="magnify" viewBox="0 0 810 1012.49997" height="1350" preserveAspectRatio="xMidYMid meet" version="1.0"><path fill="#6a0e0c" d="M 779.5625 174.476562 C 739.6875 144.578125 702.804688 177.464844 602.085938 253.914062 C 501.367188 330.367188 426.628906 483.929688 426.628906 483.929688 C 425.089844 486.832031 423.816406 489.6875 422.71875 492.371094 C 418.144531 471.488281 411.988281 458.695312 405.21875 458.695312 C 398.449219 458.695312 392.292969 471.488281 387.722656 492.371094 C 386.667969 489.644531 385.390625 486.832031 383.808594 483.929688 C 383.808594 483.929688 309.027344 330.367188 208.308594 253.914062 C 107.589844 177.464844 70.75 144.578125 30.875 174.476562 C 0.894531 196.984375 7.53125 233.957031 20.675781 264.070312 C 37.03125 301.570312 67.761719 330.324219 79.324219 370.59375 C 90.226562 408.578125 84.511719 449.59375 93.742188 487.972656 C 96.996094 501.425781 102.449219 515.011719 113.042969 523.890625 C 123.109375 532.332031 136.476562 535.496094 149.445312 537.738281 C 174.152344 542.003906 199.78125 544.507812 225.324219 544.949219 C 222.289062 545.695312 219.257812 546.53125 216.269531 547.410156 C 180.65625 557.832031 147.113281 577.65625 127.902344 610.320312 C 110.714844 639.601562 105.128906 676.53125 111.066406 709.765625 C 117.261719 744.539062 140.476562 771.710938 158.457031 801.03125 C 167.953125 816.464844 176.523438 833.300781 191.296875 843.851562 C 224.050781 867.242188 274.34375 857.570312 302.566406 831.628906 C 318.746094 816.769531 329.078125 797.121094 338.265625 777.511719 C 347.320312 758.300781 356.859375 739.265625 365.214844 719.746094 C 372.730469 702.160156 379.984375 684.398438 386.710938 666.507812 C 391.371094 690.203125 397.921875 705.019531 405.21875 705.019531 C 412.519531 705.019531 419.066406 690.246094 423.726562 666.507812 C 430.453125 684.441406 437.707031 702.160156 445.226562 719.746094 C 453.578125 739.265625 463.164062 758.300781 472.175781 777.511719 C 481.40625 797.121094 491.738281 816.816406 507.871094 831.628906 C 536.140625 857.523438 586.390625 867.195312 619.144531 843.851562 C 633.871094 833.34375 642.488281 816.464844 651.984375 801.03125 C 669.964844 771.710938 693.175781 744.539062 699.375 709.765625 C 705.308594 676.484375 699.726562 639.558594 682.539062 610.320312 C 663.324219 577.65625 629.824219 557.832031 594.171875 547.410156 C 591.183594 546.53125 588.148438 545.695312 585.117188 544.949219 C 610.65625 544.507812 636.289062 542.003906 660.996094 537.738281 C 673.921875 535.496094 687.328125 532.332031 697.398438 523.890625 C 707.992188 515.011719 713.441406 501.425781 716.695312 487.972656 C 725.929688 449.59375 720.257812 408.578125 731.117188 370.59375 C 742.679688 330.324219 773.410156 301.570312 789.761719 264.070312 C 802.90625 233.957031 809.589844 196.984375 779.5625 174.476562 Z M 779.5625 174.476562 " fill-opacity="1" fill-rule="nonzero"/></svg>