<svg xmlns="http://www.w3.org/2000/svg" xmlns:xlink="http://www.w3.org/1999/xlink" width="500" zoomAndPan="magnify" viewBox="0 0 375 74.999997" height="100" preserveAspectRatio="xMidYMid meet" version="1.0"><defs><g/></defs><g fill="#fafafa" fill-opacity="1"><g transform="translate(0.0000075, 54.835912)"><g><path d="M 30.140625 -33.4375 L 38.421875 -33.4375 C 40.523438 -33.4375 41.625 -32.351562 41.71875 -30.1875 L 42.921875 0 L 34.59375 0 L 33.53125 -26.5 L 32.75 -26.5 L 28.6875 -7.796875 C 28.332031 -5.921875 27.148438 -4.984375 25.140625 -4.984375 L 20.015625 -4.984375 C 18.003906 -4.984375 16.804688 -5.921875 16.421875 -7.796875 L 12.3125 -26.5 L 11.53125 -26.5 L 10.65625 0 L 2.328125 0 L 3.484375 -30.1875 C 3.585938 -32.351562 4.6875 -33.4375 6.78125 -33.4375 L 14.921875 -33.4375 C 16.890625 -33.4375 18.066406 -32.484375 18.453125 -30.578125 L 21.609375 -15.75 C 21.804688 -14.75 22.03125 -13.132812 22.28125 -10.90625 L 22.828125 -10.90625 C 22.859375 -11.125 22.953125 -11.832031 23.109375 -13.03125 C 23.273438 -14.226562 23.421875 -15.148438 23.546875 -15.796875 L 26.59375 -30.578125 C 26.988281 -32.484375 28.171875 -33.4375 30.140625 -33.4375 Z M 30.140625 -33.4375 "/></g></g></g><g fill="#fafafa" fill-opacity="1"><g transform="translate(45.210358, 54.835912)"><g><path d="M 5.140625 -34.9375 L 8.96875 -34.9375 C 10.644531 -34.9375 11.484375 -34.0625 11.484375 -32.3125 L 11.484375 -29.796875 C 11.484375 -28.085938 10.644531 -27.234375 8.96875 -27.234375 L 5.140625 -27.234375 C 3.421875 -27.234375 2.5625 -28.085938 2.5625 -29.796875 L 2.5625 -32.3125 C 2.5625 -34.0625 3.421875 -34.9375 5.140625 -34.9375 Z M 11.4375 0 L 2.671875 0 L 2.671875 -24.078125 L 11.4375 -24.078125 Z M 11.4375 0 "/></g></g></g><g fill="#fafafa" fill-opacity="1"><g transform="translate(59.311332, 54.835912)"><g><path d="M 23.203125 -6.828125 L 24.03125 -1.265625 C 21.539062 -0.0351562 18.210938 0.578125 14.046875 0.578125 C 9.460938 0.578125 6.234375 -0.363281 4.359375 -2.25 C 2.484375 -4.144531 1.546875 -7.414062 1.546875 -12.0625 C 1.546875 -16.71875 2.488281 -20 4.375 -21.90625 C 6.269531 -23.8125 9.523438 -24.765625 14.140625 -24.765625 C 18.054688 -24.765625 21.222656 -24.210938 23.640625 -23.109375 L 22.765625 -17.640625 L 15.65625 -17.6875 C 13.78125 -17.6875 12.503906 -17.296875 11.828125 -16.515625 C 11.148438 -15.742188 10.8125 -14.257812 10.8125 -12.0625 C 10.8125 -9.863281 11.148438 -8.375 11.828125 -7.59375 C 12.503906 -6.820312 13.78125 -6.4375 15.65625 -6.4375 C 18.457031 -6.4375 20.972656 -6.566406 23.203125 -6.828125 Z M 23.203125 -6.828125 "/></g></g></g><g fill="#fafafa" fill-opacity="1"><g transform="translate(84.412034, 54.835912)"><g><path d="M 11.34375 -33.921875 L 11.34375 -26.21875 C 11.34375 -24.375 11.179688 -22.644531 10.859375 -21.03125 C 13.984375 -23.519531 17.128906 -24.765625 20.296875 -24.765625 C 22.585938 -24.765625 24.320312 -24.1875 25.5 -23.03125 C 26.6875 -21.882812 27.28125 -20.21875 27.28125 -18.03125 L 27.28125 0 L 18.453125 0 L 18.453125 -15.265625 C 18.453125 -16.035156 18.304688 -16.566406 18.015625 -16.859375 C 17.734375 -17.148438 17.21875 -17.296875 16.46875 -17.296875 C 15.082031 -17.296875 13.359375 -16.875 11.296875 -16.03125 L 11.296875 0 L 2.46875 0 L 2.46875 -33.921875 Z M 11.34375 -33.921875 "/></g></g></g><g fill="#fafafa" fill-opacity="1"><g transform="translate(114.019236, 54.835912)"><g><path d="M 3.390625 -17.828125 L 2.609375 -23.546875 C 6.878906 -24.359375 11.273438 -24.765625 15.796875 -24.765625 C 19.191406 -24.765625 21.710938 -24.0625 23.359375 -22.65625 C 25.003906 -21.25 25.828125 -18.816406 25.828125 -15.359375 L 25.828125 0 L 18.84375 0 L 18.03125 -3.53125 C 15.695312 -0.757812 12.835938 0.625 9.453125 0.625 C 7.085938 0.625 5.144531 0.0195312 3.625 -1.1875 C 2.113281 -2.394531 1.359375 -4.082031 1.359375 -6.25 L 1.359375 -8.671875 C 1.359375 -10.578125 2.039062 -12.078125 3.40625 -13.171875 C 4.78125 -14.273438 6.664062 -14.828125 9.0625 -14.828125 L 17.0625 -14.828125 L 17.0625 -15.40625 C 17.019531 -16.4375 16.765625 -17.15625 16.296875 -17.5625 C 15.835938 -17.96875 14.976562 -18.171875 13.71875 -18.171875 C 10.582031 -18.171875 7.140625 -18.054688 3.390625 -17.828125 Z M 9.984375 -8.328125 L 9.984375 -7.515625 C 9.984375 -6.222656 10.773438 -5.578125 12.359375 -5.578125 C 13.773438 -5.578125 15.34375 -6.125 17.0625 -7.21875 L 17.0625 -10.21875 L 12.015625 -10.21875 C 10.660156 -10.1875 9.984375 -9.554688 9.984375 -8.328125 Z M 9.984375 -8.328125 "/></g></g></g><g fill="#fafafa" fill-opacity="1"><g transform="translate(142.124276, 54.835912)"><g><path d="M 18.171875 -9.734375 L 10.953125 -9.734375 C 11.179688 -8.410156 11.640625 -7.5 12.328125 -7 C 13.023438 -6.5 14.148438 -6.25 15.703125 -6.25 C 18.640625 -6.25 21.785156 -6.441406 25.140625 -6.828125 L 25.921875 -1.453125 C 23.242188 -0.0976562 19.515625 0.578125 14.734375 0.578125 C 9.984375 0.578125 6.597656 -0.421875 4.578125 -2.421875 C 2.554688 -4.421875 1.546875 -7.585938 1.546875 -11.921875 C 1.546875 -16.640625 2.539062 -19.957031 4.53125 -21.875 C 6.519531 -23.800781 9.867188 -24.765625 14.578125 -24.765625 C 18.816406 -24.765625 21.867188 -24.0625 23.734375 -22.65625 C 25.609375 -21.25 26.5625 -19.109375 26.59375 -16.234375 C 26.632812 -13.972656 26.003906 -12.320312 24.703125 -11.28125 C 23.410156 -10.25 21.234375 -9.734375 18.171875 -9.734375 Z M 10.75 -14.296875 L 15.703125 -14.296875 C 16.703125 -14.296875 17.351562 -14.445312 17.65625 -14.75 C 17.96875 -15.0625 18.125 -15.617188 18.125 -16.421875 C 18.125 -17.359375 17.878906 -17.988281 17.390625 -18.3125 C 16.910156 -18.632812 16.054688 -18.796875 14.828125 -18.796875 C 13.304688 -18.828125 12.269531 -18.550781 11.71875 -17.96875 C 11.175781 -17.394531 10.851562 -16.171875 10.75 -14.296875 Z M 10.75 -14.296875 "/></g></g></g><g fill="#fafafa" fill-opacity="1"><g transform="translate(170.035487, 54.835912)"><g><path d="M 11.296875 -33.921875 L 11.296875 -8.375 C 11.296875 -6.988281 12.148438 -6.296875 13.859375 -6.296875 L 15.609375 -6.296875 L 16.625 -0.484375 C 15.332031 0.253906 13.164062 0.625 10.125 0.625 C 7.769531 0.625 5.910156 0.0351562 4.546875 -1.140625 C 3.191406 -2.316406 2.515625 -3.957031 2.515625 -6.0625 L 2.515625 -33.921875 Z M 11.296875 -33.921875 "/></g></g></g><g fill="#fafafa" fill-opacity="1"><g transform="translate(186.704686, 54.835912)"><g><path d="M 3.390625 -17.828125 L 2.609375 -23.546875 C 6.878906 -24.359375 11.273438 -24.765625 15.796875 -24.765625 C 19.191406 -24.765625 21.710938 -24.0625 23.359375 -22.65625 C 25.003906 -21.25 25.828125 -18.816406 25.828125 -15.359375 L 25.828125 0 L 18.84375 0 L 18.03125 -3.53125 C 15.695312 -0.757812 12.835938 0.625 9.453125 0.625 C 7.085938 0.625 5.144531 0.0195312 3.625 -1.1875 C 2.113281 -2.394531 1.359375 -4.082031 1.359375 -6.25 L 1.359375 -8.671875 C 1.359375 -10.578125 2.039062 -12.078125 3.40625 -13.171875 C 4.78125 -14.273438 6.664062 -14.828125 9.0625 -14.828125 L 17.0625 -14.828125 L 17.0625 -15.40625 C 17.019531 -16.4375 16.765625 -17.15625 16.296875 -17.5625 C 15.835938 -17.96875 14.976562 -18.171875 13.71875 -18.171875 C 10.582031 -18.171875 7.140625 -18.054688 3.390625 -17.828125 Z M 9.984375 -8.328125 L 9.984375 -7.515625 C 9.984375 -6.222656 10.773438 -5.578125 12.359375 -5.578125 C 13.773438 -5.578125 15.34375 -6.125 17.0625 -7.21875 L 17.0625 -10.21875 L 12.015625 -10.21875 C 10.660156 -10.1875 9.984375 -9.554688 9.984375 -8.328125 Z M 9.984375 -8.328125 "/></g></g></g><g fill="#fafafa" fill-opacity="1"><g transform="translate(214.809714, 54.835912)"><g/></g></g><g fill="#fafafa" fill-opacity="1"><g transform="translate(225.131048, 54.835912)"><g><path d="M 26.0625 -26.5 L 14.25 -26.5 C 12.695312 -26.5 11.921875 -25.804688 11.921875 -24.421875 L 11.921875 -19.71875 L 24.28125 -19.71875 L 24.28125 -13.421875 L 11.921875 -13.421875 L 11.921875 0 L 2.8125 0 L 2.8125 -26.3125 C 2.8125 -28.507812 3.519531 -30.269531 4.9375 -31.59375 C 6.363281 -32.914062 8.222656 -33.578125 10.515625 -33.578125 C 18.171875 -33.578125 23.5 -33.382812 26.5 -33 Z M 26.0625 -26.5 "/></g></g></g><g fill="#fafafa" fill-opacity="1"><g transform="translate(252.509227, 54.835912)"><g><path d="M 21.03125 -24.765625 L 20.25 -16.671875 L 17.921875 -16.671875 C 16.304688 -16.671875 14.097656 -16.332031 11.296875 -15.65625 L 11.296875 0 L 2.46875 0 L 2.46875 -24.078125 L 9.34375 -24.078125 L 10.125 -20.546875 C 13.257812 -23.359375 16.457031 -24.765625 19.71875 -24.765625 Z M 21.03125 -24.765625 "/></g></g></g><g fill="#fafafa" fill-opacity="1"><g transform="translate(273.830278, 54.835912)"><g><path d="M 18.171875 -9.734375 L 10.953125 -9.734375 C 11.179688 -8.410156 11.640625 -7.5 12.328125 -7 C 13.023438 -6.5 14.148438 -6.25 15.703125 -6.25 C 18.640625 -6.25 21.785156 -6.441406 25.140625 -6.828125 L 25.921875 -1.453125 C 23.242188 -0.0976562 19.515625 0.578125 14.734375 0.578125 C 9.984375 0.578125 6.597656 -0.421875 4.578125 -2.421875 C 2.554688 -4.421875 1.546875 -7.585938 1.546875 -11.921875 C 1.546875 -16.640625 2.539062 -19.957031 4.53125 -21.875 C 6.519531 -23.800781 9.867188 -24.765625 14.578125 -24.765625 C 18.816406 -24.765625 21.867188 -24.0625 23.734375 -22.65625 C 25.609375 -21.25 26.5625 -19.109375 26.59375 -16.234375 C 26.632812 -13.972656 26.003906 -12.320312 24.703125 -11.28125 C 23.410156 -10.25 21.234375 -9.734375 18.171875 -9.734375 Z M 10.75 -14.296875 L 15.703125 -14.296875 C 16.703125 -14.296875 17.351562 -14.445312 17.65625 -14.75 C 17.96875 -15.0625 18.125 -15.617188 18.125 -16.421875 C 18.125 -17.359375 17.878906 -17.988281 17.390625 -18.3125 C 16.910156 -18.632812 16.054688 -18.796875 14.828125 -18.796875 C 13.304688 -18.828125 12.269531 -18.550781 11.71875 -17.96875 C 11.175781 -17.394531 10.851562 -16.171875 10.75 -14.296875 Z M 10.75 -14.296875 "/></g></g></g><g fill="#fafafa" fill-opacity="1"><g transform="translate(301.7415, 54.835912)"><g><path d="M 5.140625 -34.9375 L 8.96875 -34.9375 C 10.644531 -34.9375 11.484375 -34.0625 11.484375 -32.3125 L 11.484375 -29.796875 C 11.484375 -28.085938 10.644531 -27.234375 8.96875 -27.234375 L 5.140625 -27.234375 C 3.421875 -27.234375 2.5625 -28.085938 2.5625 -29.796875 L 2.5625 -32.3125 C 2.5625 -34.0625 3.421875 -34.9375 5.140625 -34.9375 Z M 11.4375 0 L 2.671875 0 L 2.671875 -24.078125 L 11.4375 -24.078125 Z M 11.4375 0 "/></g></g></g><g fill="#fafafa" fill-opacity="1"><g transform="translate(315.842474, 54.835912)"><g><path d="M 21.03125 -24.765625 L 20.25 -16.671875 L 17.921875 -16.671875 C 16.304688 -16.671875 14.097656 -16.332031 11.296875 -15.65625 L 11.296875 0 L 2.46875 0 L 2.46875 -24.078125 L 9.34375 -24.078125 L 10.125 -20.546875 C 13.257812 -23.359375 16.457031 -24.765625 19.71875 -24.765625 Z M 21.03125 -24.765625 "/></g></g></g><g fill="#fafafa" fill-opacity="1"><g transform="translate(337.163525, 54.835912)"><g><path d="M 18.171875 -9.734375 L 10.953125 -9.734375 C 11.179688 -8.410156 11.640625 -7.5 12.328125 -7 C 13.023438 -6.5 14.148438 -6.25 15.703125 -6.25 C 18.640625 -6.25 21.785156 -6.441406 25.140625 -6.828125 L 25.921875 -1.453125 C 23.242188 -0.0976562 19.515625 0.578125 14.734375 0.578125 C 9.984375 0.578125 6.597656 -0.421875 4.578125 -2.421875 C 2.554688 -4.421875 1.546875 -7.585938 1.546875 -11.921875 C 1.546875 -16.640625 2.539062 -19.957031 4.53125 -21.875 C 6.519531 -23.800781 9.867188 -24.765625 14.578125 -24.765625 C 18.816406 -24.765625 21.867188 -24.0625 23.734375 -22.65625 C 25.609375 -21.25 26.5625 -19.109375 26.59375 -16.234375 C 26.632812 -13.972656 26.003906 -12.320312 24.703125 -11.28125 C 23.410156 -10.25 21.234375 -9.734375 18.171875 -9.734375 Z M 10.75 -14.296875 L 15.703125 -14.296875 C 16.703125 -14.296875 17.351562 -14.445312 17.65625 -14.75 C 17.96875 -15.0625 18.125 -15.617188 18.125 -16.421875 C 18.125 -17.359375 17.878906 -17.988281 17.390625 -18.3125 C 16.910156 -18.632812 16.054688 -18.796875 14.828125 -18.796875 C 13.304688 -18.828125 12.269531 -18.550781 11.71875 -17.96875 C 11.175781 -17.394531 10.851562 -16.171875 10.75 -14.296875 Z M 10.75 -14.296875 "/></g></g></g><g fill="#fafafa" fill-opacity="1"><g transform="translate(365.085915, 54.835912)"><g/></g></g></svg>