<svg xmlns="http://www.w3.org/2000/svg" xmlns:xlink="http://www.w3.org/1999/xlink" width="64" zoomAndPan="magnify" viewBox="0 0 48 48" height="64" preserveAspectRatio="xMidYMid meet" version="1.0"><defs><clipPath id="75e5b25bc0"><path d="M 5.191406 1.789062 L 42.660156 1.789062 L 42.660156 45.136719 L 5.191406 45.136719 Z M 5.191406 1.789062 " clip-rule="nonzero"/></clipPath><clipPath id="36f694db8e"><path d="M 27.96875 6.464844 L 29.878906 6.464844 L 29.878906 8.375 L 27.96875 8.375 Z M 27.96875 6.464844 " clip-rule="nonzero"/></clipPath><clipPath id="98690145a8"><path d="M 28.921875 6.464844 C 28.394531 6.464844 27.96875 6.894531 27.96875 7.421875 C 27.96875 7.949219 28.394531 8.375 28.921875 8.375 C 29.449219 8.375 29.878906 7.949219 29.878906 7.421875 C 29.878906 6.894531 29.449219 6.464844 28.921875 6.464844 Z M 28.921875 6.464844 " clip-rule="nonzero"/></clipPath></defs><g clip-path="url(#75e5b25bc0)"><path fill="#ff5a81" d="M 26.53125 45.203125 C 25.824219 45.203125 25.167969 44.753906 24.941406 44.046875 C 22.210938 34.425781 30.800781 22.417969 36 14.21875 C 33.78125 15.472656 31.417969 16.976562 29.023438 18.667969 C 26.792969 20.253906 23.875 22.808594 21.617188 24.28125 C 20.214844 25.195312 18.597656 26.050781 17.199219 25.472656 C 16.707031 25.265625 15.859375 24.714844 15.699219 23.3125 C 14.960938 20.378906 23.019531 13.207031 25.980469 9.332031 C 21.816406 11.851562 12.765625 18.039062 8.6875 17.371094 C 5.191406 16.554688 5.320312 13.683594 7.136719 11.285156 C 7.902344 10.234375 8.859375 9.304688 9.359375 8.847656 C 10.039062 8.21875 11.097656 8.265625 11.722656 8.945312 C 12.351562 9.625 12.304688 10.683594 11.625 11.308594 C 11.269531 11.636719 9.773438 13.019531 9.34375 14.085938 C 9.355469 14.058594 10.054688 14.210938 12.417969 13.1875 C 18.15625 10.628906 25.382812 5.757812 30.707031 2.207031 C 31.316406 1.800781 32.121094 1.832031 32.691406 2.292969 C 33.261719 2.753906 33.46875 3.53125 33.199219 4.214844 C 30.886719 10.128906 23.980469 16.136719 19.9375 21.375 C 22.1875 19.863281 24.847656 17.523438 27.09375 15.9375 C 31.832031 12.585938 36.507812 9.914062 40.261719 8.410156 C 40.945312 8.136719 41.726562 8.339844 42.1875 8.914062 C 42.648438 9.484375 42.683594 10.292969 42.273438 10.902344 C 35.636719 20.730469 25.546875 35.109375 28.125 43.011719 C 28.488281 44.066406 27.644531 45.222656 26.53125 45.203125 Z M 26.53125 45.203125 " fill-opacity="1" fill-rule="nonzero"/></g><path fill="#ff5a81" d="M 17.734375 5.25 C 17.734375 5.472656 17.695312 5.683594 17.609375 5.890625 C 17.523438 6.09375 17.40625 6.273438 17.25 6.429688 C 17.09375 6.585938 16.914062 6.707031 16.707031 6.789062 C 16.503906 6.875 16.292969 6.917969 16.070312 6.917969 C 15.851562 6.917969 15.636719 6.875 15.433594 6.789062 C 15.230469 6.707031 15.050781 6.585938 14.894531 6.429688 C 14.738281 6.273438 14.617188 6.09375 14.53125 5.890625 C 14.449219 5.683594 14.40625 5.472656 14.40625 5.25 C 14.40625 5.03125 14.449219 4.816406 14.53125 4.613281 C 14.617188 4.410156 14.738281 4.230469 14.894531 4.074219 C 15.050781 3.917969 15.230469 3.796875 15.433594 3.710938 C 15.636719 3.628906 15.851562 3.585938 16.070312 3.585938 C 16.292969 3.585938 16.503906 3.628906 16.707031 3.710938 C 16.914062 3.796875 17.09375 3.917969 17.25 4.074219 C 17.40625 4.230469 17.523438 4.410156 17.609375 4.613281 C 17.695312 4.816406 17.734375 5.03125 17.734375 5.25 Z M 17.734375 5.25 " fill-opacity="1" fill-rule="nonzero"/><g clip-path="url(#36f694db8e)"><g clip-path="url(#98690145a8)"><path fill="#ff5a81" d="M 27.96875 6.464844 L 29.878906 6.464844 L 29.878906 8.375 L 27.96875 8.375 Z M 27.96875 6.464844 " fill-opacity="1" fill-rule="nonzero"/></g></g></svg>